# xmcd
#
# Track frame offsets: 
#        150
#        20972
#        39418
#        106631
#        148351
#        185913
#
# Disc length: 2839 seconds
#
# Revision: 0
# Processed by: cddbd v1.5.2PL0 Copyright (c) Steve Scherf et al.
# Submitted via: ExactAudioCopyFreeDBPlugin 1.0
#
DISCID=560b1506
DTITLE=North Mississippi Allstars - 20000928  Cambridge MA  House of B
DTITLE=lues
DYEAR=1900
DGENRE=
TTITLE0=Shake 'em On Down
TTITLE1=Drinking Muddy Water
TTITLE2=Po Black Maddie
TTITLE3=All Night Long
TTITLE4=Oh Lord, Have Mercy On Me
TTITLE5=Freedom Highway
EXTD=
EXTT0=
EXTT1=
EXTT2=
EXTT3=
EXTT4=
EXTT5=
PLAYORDER=
